<?xml version="1.0" encoding="UTF-8"?>
<svg id="Layer_1" data-name="Layer 1" xmlns="http://www.w3.org/2000/svg" viewBox="0 0 740.72 240.53">
  <defs>
    <style>
      .cls-1 {
        letter-spacing: .19em;
      }

      .cls-2 {
        letter-spacing: .2em;
      }

      .cls-3 {
        font-family: Inter-ExtraLight, Inter;
        font-size: 29.89px;
        font-weight: 200;
      }

      .cls-4 {
        letter-spacing: .18em;
      }

      .cls-5 {
        letter-spacing: .18em;
      }

      .cls-6 {
        stroke: #000;
        stroke-linecap: round;
        stroke-linejoin: round;
        stroke-width: 5px;
      }
    </style>
  </defs>
  <g>
    <path d="M410.82,90.65v15.52c0,.28-.23.51-.51.51h-40.68c-.28,0-.51-.23-.51-.51v-15.52c0-.28.23-.51.51-.51h40.68c.28,0,.51.23.51.51Z"/>
    <path d="M425.99,130.94V54.05c0-.37.3-.68.68-.68h36.88c6.74,0,12.39.95,16.95,2.86,4.56,1.91,7.99,4.57,10.29,8,2.3,3.43,3.45,7.4,3.45,11.92,0,3.43-.72,6.49-2.15,9.17-1.44,2.68-3.42,4.9-5.94,6.66-2.42,1.69-5.21,2.89-8.36,3.61-.23.05-.4.25-.4.49h0c0,.27.21.48.48.5,3.45.24,6.66,1.21,9.62,2.92,3.09,1.79,5.58,4.27,7.45,7.45,1.88,3.18,2.81,6.94,2.81,11.28,0,4.84-1.23,9.16-3.69,12.95-2.46,3.8-6.02,6.79-10.69,8.97-4.66,2.18-10.32,3.28-16.98,3.28h-27.91c-6.91,0-12.5-5.6-12.5-12.5ZM447.76,80.73c0,5.35,4.33,9.68,9.68,9.68h2.37c2.37,0,4.49-.4,6.33-1.19,1.85-.79,3.29-1.93,4.33-3.43,1.04-1.5,1.56-3.3,1.56-5.41,0-3.02-1.07-5.39-3.21-7.12-2.14-1.73-5.03-2.59-8.66-2.59h-11.73c-.37,0-.68.3-.68.68v9.39ZM447.66,125.24c0,.31.2.6.5.65.03,0,.07,0,.1,0h12.95c4.72,0,8.2-.89,10.44-2.68,2.24-1.79,3.36-4.28,3.36-7.48,0-2.32-.54-4.32-1.63-6-1.09-1.69-2.62-2.99-4.62-3.91-1.99-.92-4.38-1.39-7.17-1.39h-13.35c-.28,0-.51.23-.6.79v20.01Z"/>
    <path d="M508.23,134.61V62.22c0-4.88,3.96-8.84,8.84-8.84h4.09c4.88,0,8.84,3.96,8.84,8.84v54.71c0,4.88,3.96,8.84,8.84,8.84h19.79c4.88,0,8.84,3.96,8.84,8.84h0c0,4.88-3.96,8.84-8.84,8.84h-41.56c-4.88,0-8.84-3.96-8.84-8.84Z"/>
    <path d="M578.73,133.05V53.38h57.51c2.92,0,5.29,2.37,5.29,5.29v12.39s-41.03,0-41.03,0v13.45c0,2.78,2.25,5.03,5.03,5.03h28.43c2.41,0,4.36,1.95,4.36,4.36v13.36h-37.82v10.89c0,4.21,3.41,7.62,7.62,7.62h27.18c3.44,0,6.23,2.79,6.23,6.23v11.45h-52.4c-5.74,0-10.4-4.66-10.4-10.4Z"/>
    <path d="M736.35,86.01h-16.3c-2.72,0-5.21-1.66-6.12-4.22-.23-.65-.5-1.29-.81-1.89-.91-1.82-2.11-3.37-3.61-4.66-1.5-1.29-3.26-2.28-5.3-2.97-2.04-.69-4.29-1.03-6.75-1.03-4.37,0-8.13,1.07-11.28,3.21-3.15,2.14-5.57,5.23-7.26,9.28-1.69,4.05-2.53,8.94-2.53,14.69s.86,10.99,2.57,15.02c1.71,4.03,4.13,7.07,7.26,9.1,3.12,2.04,6.82,3.06,11.1,3.06,2.4,0,4.6-.31,6.57-.92,1.98-.62,3.72-1.52,5.23-2.7,1.51-1.19,2.76-2.64,3.74-4.35,0-.02.02-.03.03-.05,2-3.52,5.67-5.75,9.71-5.73l13.73.08c.3,0,.54.26.5.56-.43,3.8-1.56,7.54-3.39,11.23-1.92,3.87-4.55,7.4-7.89,10.58-3.34,3.18-7.41,5.71-12.2,7.59-4.79,1.88-10.28,2.81-16.47,2.81-8.15,0-15.44-1.8-21.88-5.39-6.44-3.59-11.52-8.83-15.24-15.72-3.72-6.89-5.59-15.27-5.59-25.16s1.89-18.31,5.67-25.2c3.78-6.89,8.9-12.12,15.35-15.7,6.45-3.58,13.68-5.37,21.68-5.37,5.45,0,10.5.76,15.13,2.26,4.63,1.51,8.71,3.71,12.23,6.6,3.52,2.89,6.38,6.43,8.58,10.62,2.12,4.05,3.47,8.65,4.03,13.82.03.3-.2.56-.51.56Z"/>
    <path d="M354.62,86.01h-16.3c-2.72,0-5.21-1.66-6.12-4.22-.23-.65-.5-1.29-.81-1.89-.91-1.82-2.11-3.37-3.61-4.66-1.5-1.29-3.26-2.28-5.3-2.97-2.04-.69-4.29-1.03-6.75-1.03-4.37,0-8.13,1.07-11.28,3.21-3.15,2.14-5.57,5.23-7.26,9.28-1.69,4.05-2.53,8.94-2.53,14.69s.86,10.99,2.57,15.02c1.71,4.03,4.13,7.07,7.26,9.1,3.12,2.04,6.82,3.06,11.1,3.06,2.4,0,4.6-.31,6.57-.92,1.98-.62,3.72-1.52,5.23-2.7,1.51-1.19,2.76-2.64,3.74-4.35,0-.02.02-.03.03-.05,2-3.52,5.67-5.75,9.71-5.73l13.73.08c.3,0,.54.26.5.56-.43,3.8-1.56,7.54-3.39,11.23-1.92,3.87-4.55,7.4-7.89,10.58-3.34,3.18-7.41,5.71-12.2,7.59-4.79,1.88-10.28,2.81-16.47,2.81-8.15,0-15.44-1.8-21.88-5.39-6.44-3.59-11.52-8.83-15.24-15.72-3.72-6.89-5.59-15.27-5.59-25.16s1.89-18.31,5.67-25.2c3.78-6.89,8.9-12.12,15.35-15.7,6.45-3.58,13.68-5.37,21.68-5.37,5.45,0,10.5.76,15.13,2.26,4.63,1.51,8.71,3.71,12.23,6.6,3.52,2.89,6.38,6.43,8.58,10.62,2.12,4.05,3.47,8.65,4.03,13.82.03.3-.2.56-.51.56Z"/>
  </g>
  <text class="cls-3" transform="translate(279.66 176.66)"><tspan class="cls-1" x="0" y="0">P</tspan><tspan class="cls-2" x="24.22" y="0">os</tspan><tspan class="cls-5" x="68.7" y="0">t</tspan><tspan class="cls-2" x="84.65" y="0">-P</tspan><tspan class="cls-4" x="128.35" y="0">r</tspan><tspan class="cls-2" x="144.01" y="0">oduction Agency</tspan></text>
  <path class="cls-6" d="M2.53,2.5l-.03,123.02c-.01,62.12,50.34,112.49,112.46,112.5h118.46s0-80.01,0-80.01h-28.03v42.5c0,5.18-4.2,9.37-9.37,9.37h-78.66c-48.56,0-87.93-39.37-87.93-87.93V38.91c0-5.09,4.13-9.22,9.22-9.22h76.26c50.45,0,91.35,40.9,91.35,91.35h0c0,5.42,4.39,9.8,9.8,9.8h17.36s0-10.13,0-10.13C233.43,55.43,180.51,2.5,115.22,2.5H2.53Z"/>
  <g>
    <path d="M179.79,146.99c-8.27,12.89-23.15,19.3-36.76,16.18-17.57-4.02-30.5-23.33-24.78-42.19,5.68-18.72,26.87-27.57,43.69-21.46,13.29,4.83,22.39,18.45,22.23,33.89-.16-.84-2-9.55-10.34-13.26-1.1-.49-7.98-3.41-14.99.33-5.28,2.82-8.34,8.19-8.77,13.47-.65,7.99,4.71,16.22,12.9,18.24,9.34,2.31,16.51-4.88,16.83-5.21Z"/>
    <path d="M185.51,122.51c.25-28.99-17.29-55.01-43.59-64.99-29.78-11.3-63.78.62-80.4,26.38-13.24,20.53-13.49,46.8-2.49,67.61,12.79,24.2,39.74,38.99,67.05,35.84,29.4-3.4,45.56-26.04,48.12-29.75-1.83,2.11-18.22,20.31-43.36,18.35-18.7-1.46-30.37-13.14-33.1-16.04-4.44-4.71-11.53-14-13.46-27.59-2.46-17.3,5.04-30.24,7.36-33.93,2.18-3.46,9.91-14.79,25.21-20.49,2.85-1.06,19.44-6.95,37.8.92,12.32,5.28,19.23,14.1,22.14,18.41,7.02,10.39,8.39,20.59,8.73,25.29Z"/>
  </g>
</svg>