<?xml version="1.0" encoding="UTF-8"?>
<svg id="Layer_1" data-name="Layer 1" xmlns="http://www.w3.org/2000/svg" viewBox="0 0 359.67 366.73">
  <defs>
    <style>
      .cls-1 {
        stroke: #000;
        stroke-linecap: round;
        stroke-linejoin: round;
        stroke-width: 5px;
      }
    </style>
  </defs>
  <path class="cls-1" d="M2.54,2.5l-.04,188.94c-.02,95.41,77.31,172.77,172.72,172.77h181.94s0-122.88,0-122.88h-43.05v65.28c0,7.95-6.45,14.4-14.4,14.4h-120.82c-74.58,0-135.04-60.46-135.04-135.04V58.43c0-7.82,6.34-14.16,14.16-14.16h117.12c77.48,0,140.29,62.81,140.29,140.29h0c0,8.32,6.74,15.06,15.06,15.06h26.67s0-15.56,0-15.56C357.17,83.79,275.88,2.5,175.61,2.5H2.54Z"/>
  <g>
    <path d="M274.79,224.41c-12.7,19.79-35.55,29.64-56.46,24.85-26.99-6.18-46.84-35.84-38.05-64.8,8.72-28.75,41.26-42.34,67.11-32.95,20.41,7.41,34.38,28.34,34.13,52.05-.25-1.29-3.07-14.66-15.87-20.36-1.69-.75-12.26-5.24-23.03.5-8.12,4.33-12.81,12.58-13.47,20.69-.99,12.28,7.23,24.91,19.81,28.02,14.34,3.55,25.36-7.5,25.84-8Z"/>
    <path d="M283.58,186.82c.38-44.52-26.56-84.49-66.94-99.82-45.73-17.36-97.96.95-123.49,40.52-20.34,31.52-20.71,71.88-3.82,103.83,19.65,37.16,61.04,59.89,102.97,55.04,45.15-5.22,69.97-39.99,73.9-45.7-2.82,3.24-27.98,31.2-66.6,28.18-28.71-2.24-46.64-20.18-50.84-24.63-6.82-7.23-17.7-21.5-20.67-42.37-3.78-26.57,7.74-46.45,11.31-52.11,3.35-5.32,15.23-22.71,38.71-31.46,4.38-1.63,29.86-10.67,58.05,1.41,18.92,8.11,29.53,21.65,34.01,28.27,10.78,15.95,12.88,31.63,13.4,38.84Z"/>
  </g>
</svg>